HIERARCHY
ROOT Root
{
  OFFSET 0.0 0.0 0.0
  CHANNELS 6 Xposition Yposition Zposition Zrotation Yrotation Xrotation
  JOINT Hips
  {
    OFFSET 0.0 100.0 0.0
    CHANNELS 6 Xposition Yposition Zposition Zrotation Yrotation Xrotation
    JOINT Spine1
    {
      OFFSET -0.013727 5.003763 -0.053727
      CHANNELS 3 Zrotation Yrotation Xrotation
      JOINT Spine2
      {
        OFFSET -0.0 7.125301 -0.029825
        CHANNELS 3 Zrotation Yrotation Xrotation
        JOINT Chest
        {
          OFFSET -1e-06 7.550063 -0.815971
          CHANNELS 3 Zrotation Yrotation Xrotation
          JOINT Neck1
          {
            OFFSET -0.181677 26.311295 -0.553348
            CHANNELS 3 Zrotation Yrotation Xrotation
            JOINT Neck2
            {
              OFFSET -3e-06 7.709397 2.302585
              CHANNELS 3 Zrotation Yrotation Xrotation
              JOINT Head
              {
                OFFSET -5e-06 6.128916 1.953709
                CHANNELS 3 Zrotation Yrotation Xrotation
                JOINT HeadEnd
                {
                  OFFSET 0.003598 16.065403 -1.835379
                  CHANNELS 3 Zrotation Yrotation Xrotation
                }
                JOINT Jaw
                {
                  OFFSET 0.002637 0.475592 3.094941
                  CHANNELS 3 Zrotation Yrotation Xrotation
                }
                JOINT LeftEye
                {
                  OFFSET 3.206381 5.380205 7.586883
                  CHANNELS 3 Zrotation Yrotation Xrotation
                }
                JOINT RightEye
                {
                  OFFSET -3.22244 5.361869 7.558234
                  CHANNELS 3 Zrotation Yrotation Xrotation
                }
              }
            }
          }
          JOINT LeftShoulder
          {
            OFFSET 1.621652 23.237164 5.113413
            CHANNELS 3 Zrotation Yrotation Xrotation
            JOINT LeftArm
            {
              OFFSET 14.919846 2e-06 -5.502326
              CHANNELS 3 Zrotation Yrotation Xrotation
              JOINT LeftForeArm
              {
                OFFSET 28.739307 0.0 -0.002588
                CHANNELS 3 Zrotation Yrotation Xrotation
                JOINT LeftHand
                {
                  OFFSET 27.093981 -1e-06 0.002609
                  CHANNELS 3 Zrotation Yrotation Xrotation
                  JOINT LeftHandThumb1
                  {
                    OFFSET 2.276482 -1.392045 3.191413
                    CHANNELS 3 Zrotation Yrotation Xrotation
                    JOINT LeftHandThumb2
                    {
                      OFFSET 4.012836 -1.828127 1.641654
                      CHANNELS 3 Zrotation Yrotation Xrotation
                      JOINT LeftHandThumb3
                      {
                        OFFSET 2.798515 0.0 -3e-06
                        CHANNELS 3 Zrotation Yrotation Xrotation
                        JOINT LeftHandThumbEnd
                        {
                          OFFSET 3.180793 -4e-06 4e-06
                          CHANNELS 3 Zrotation Yrotation Xrotation
                        }
                      }
                    }
                  }
                  JOINT LeftHandIndex1
                  {
                    OFFSET 3.247555 -0.531998 2.296169
                    CHANNELS 3 Zrotation Yrotation Xrotation
                    JOINT LeftHandIndex2
                    {
                      OFFSET 6.364578 0.01206 0.1786
                      CHANNELS 3 Zrotation Yrotation Xrotation
                      JOINT LeftHandIndex3
                      {
                        OFFSET 3.662364 0.0 0.0
                        CHANNELS 3 Zrotation Yrotation Xrotation
                        JOINT LeftHandIndex4
                        {
                          OFFSET 2.329242 4e-06 4e-06
                          CHANNELS 3 Zrotation Yrotation Xrotation
                          JOINT LeftHandIndexEnd
                          {
                            OFFSET 2.759615 -0.180537 -0.113024
                            CHANNELS 3 Zrotation Yrotation Xrotation
                          }
                        }
                      }
                    }
                  }
                  JOINT LeftHandMiddle1
                  {
                    OFFSET 3.163495 0.240981 1.000332
                    CHANNELS 3 Zrotation Yrotation Xrotation
                    JOINT LeftHandMiddle2
                    {
                      OFFSET 6.19078 -0.259278 -1.002548
                      CHANNELS 3 Zrotation Yrotation Xrotation
                      JOINT LeftHandMiddle3
                      {
                        OFFSET 4.35652 -4e-06 -1e-06
                        CHANNELS 3 Zrotation Yrotation Xrotation
                        JOINT LeftHandMiddle4
                        {
                          OFFSET 2.996877 -8e-06 0.0
                          CHANNELS 3 Zrotation Yrotation Xrotation
                          JOINT LeftHandMiddleEnd
                          {
                            OFFSET 2.304287 -0.294569 -0.031741
                            CHANNELS 3 Zrotation Yrotation Xrotation
                          }
                        }
                      }
                    }
                  }
                  JOINT LeftHandRing1
                  {
                    OFFSET 2.882643 -0.053652 -0.322543
                    CHANNELS 3 Zrotation Yrotation Xrotation
                    JOINT LeftHandRing2
                    {
                      OFFSET 5.854541 -0.486202 -1.373841
                      CHANNELS 3 Zrotation Yrotation Xrotation
                      JOINT LeftHandRing3
                      {
                        OFFSET 4.350578 0.0 3e-06
                        CHANNELS 3 Zrotation Yrotation Xrotation
                        JOINT LeftHandRing4
                        {
                          OFFSET 2.651321 7e-06 2e-06
                          CHANNELS 3 Zrotation Yrotation Xrotation
                          JOINT LeftHandRingEnd
                          {
                            OFFSET 1.936105 0.077687 -7.1e-05
                            CHANNELS 3 Zrotation Yrotation Xrotation
                          }
                        }
                      }
                    }
                  }
                  JOINT LeftHandPinky1
                  {
                    OFFSET 2.8655 -0.310005 -1.600378
                    CHANNELS 3 Zrotation Yrotation Xrotation
                    JOINT LeftHandPinky2
                    {
                      OFFSET 5.087849 -1.331141 -1.77123
                      CHANNELS 3 Zrotation Yrotation Xrotation
                      JOINT LeftHandPinky3
                      {
                        OFFSET 3.070974 4e-06 0.0
                        CHANNELS 3 Zrotation Yrotation Xrotation
                        JOINT LeftHandPinky4
                        {
                          OFFSET 1.549672 0.0 1e-06
                          CHANNELS 3 Zrotation Yrotation Xrotation
                          JOINT LeftHandPinkyEnd
                          {
                            OFFSET 1.944893 -0.157802 0.057219
                            CHANNELS 3 Zrotation Yrotation Xrotation
                          }
                        }
                      }
                    }
                  }
                }
              }
            }
          }
          JOINT RightShoulder
          {
            OFFSET -1.380118 23.180309 5.214158
            CHANNELS 3 Zrotation Yrotation Xrotation
            JOINT RightArm
            {
              OFFSET -15.037196 1.2e-05 -5.545604
              CHANNELS 3 Zrotation Yrotation Xrotation
              JOINT RightForeArm
              {
                OFFSET -28.736639 2e-06 -0.002597
                CHANNELS 3 Zrotation Yrotation Xrotation
                JOINT RightHand
                {
                  OFFSET -27.133619 -0.0 0.002613
                  CHANNELS 3 Zrotation Yrotation Xrotation
                  JOINT RightHandThumb1
                  {
                    OFFSET -2.274032 -1.383988 3.163127
                    CHANNELS 3 Zrotation Yrotation Xrotation
                    JOINT RightHandThumb2
                    {
                      OFFSET -4.011429 -1.827466 1.640914
                      CHANNELS 3 Zrotation Yrotation Xrotation
                      JOINT RightHandThumb3
                      {
                        OFFSET -2.794935 -4e-06 -3e-06
                        CHANNELS 3 Zrotation Yrotation Xrotation
                        JOINT RightHandThumbEnd
                        {
                          OFFSET -3.183852 4e-06 1e-06
                          CHANNELS 3 Zrotation Yrotation Xrotation
                        }
                      }
                    }
                  }
                  JOINT RightHandIndex1
                  {
                    OFFSET -3.253266 -0.520057 2.282866
                    CHANNELS 3 Zrotation Yrotation Xrotation
                    JOINT RightHandIndex2
                    {
                      OFFSET -6.341917 0.012471 0.178266
                      CHANNELS 3 Zrotation Yrotation Xrotation
                      JOINT RightHandIndex3
                      {
                        OFFSET -3.654871 -8e-06 -0.0
                        CHANNELS 3 Zrotation Yrotation Xrotation
                        JOINT RightHandIndex4
                        {
                          OFFSET -2.327586 0.0 1e-06
                          CHANNELS 3 Zrotation Yrotation Xrotation
                          JOINT RightHandIndexEnd
                          {
                            OFFSET -2.76179 -0.180656 -0.113078
                            CHANNELS 3 Zrotation Yrotation Xrotation
                          }
                        }
                      }
                    }
                  }
                  JOINT RightHandMiddle1
                  {
                    OFFSET -3.168106 0.246593 1.00103
                    CHANNELS 3 Zrotation Yrotation Xrotation
                    JOINT RightHandMiddle2
                    {
                      OFFSET -6.180828 -0.258836 -1.000895
                      CHANNELS 3 Zrotation Yrotation Xrotation
                      JOINT RightHandMiddle3
                      {
                        OFFSET -4.348901 0.0 -0.0
                        CHANNELS 3 Zrotation Yrotation Xrotation
                        JOINT RightHandMiddle4
                        {
                          OFFSET -3.00024 -4e-06 -2e-06
                          CHANNELS 3 Zrotation Yrotation Xrotation
                          JOINT RightHandMiddleEnd
                          {
                            OFFSET -2.30252 -0.29437 -0.031706
                            CHANNELS 3 Zrotation Yrotation Xrotation
                          }
                        }
                      }
                    }
                  }
                  JOINT RightHandRing1
                  {
                    OFFSET -2.88569 -0.067952 -0.308858
                    CHANNELS 3 Zrotation Yrotation Xrotation
                    JOINT RightHandRing2
                    {
                      OFFSET -5.854198 -0.48613 -1.373731
                      CHANNELS 3 Zrotation Yrotation Xrotation
                      JOINT RightHandRing3
                      {
                        OFFSET -4.33881 -4e-06 -0.0
                        CHANNELS 3 Zrotation Yrotation Xrotation
                        JOINT RightHandRing4
                        {
                          OFFSET -2.654903 -4e-06 4e-06
                          CHANNELS 3 Zrotation Yrotation Xrotation
                          JOINT RightHandRingEnd
                          {
                            OFFSET -1.933568 0.077527 -5.2e-05
                            CHANNELS 3 Zrotation Yrotation Xrotation
                          }
                        }
                      }
                    }
                  }
                  JOINT RightHandPinky1
                  {
                    OFFSET -2.866425 -0.342796 -1.584145
                    CHANNELS 3 Zrotation Yrotation Xrotation
                    JOINT RightHandPinky2
                    {
                      OFFSET -5.091371 -1.332055 -1.772385
                      CHANNELS 3 Zrotation Yrotation Xrotation
                      JOINT RightHandPinky3
                      {
                        OFFSET -3.062664 -4e-06 1e-06
                        CHANNELS 3 Zrotation Yrotation Xrotation
                        JOINT RightHandPinky4
                        {
                          OFFSET -1.546529 4e-06 -2e-06
                          CHANNELS 3 Zrotation Yrotation Xrotation
                          JOINT RightHandPinkyEnd
                          {
                            OFFSET -1.945119 -0.157718 0.057211
                            CHANNELS 3 Zrotation Yrotation Xrotation
                          }
                        }
                      }
                    }
                  }
                }
              }
            }
          }
        }
      }
    }
    JOINT LeftLeg
    {
      OFFSET 10.043214 -8.434526 2.595655
      CHANNELS 3 Zrotation Yrotation Xrotation
      JOINT LeftShin
      {
        OFFSET -1e-06 -43.221752 -0.802913
        CHANNELS 3 Zrotation Yrotation Xrotation
        JOINT LeftFoot
        {
          OFFSET 1e-06 -42.155094 -3.481523
          CHANNELS 3 Zrotation Yrotation Xrotation
          JOINT LeftToeBase
          {
            OFFSET 0.0 -5.059472 13.231529
            CHANNELS 3 Zrotation Yrotation Xrotation
            JOINT LeftToeEnd
            {
              OFFSET -0.009607 -1.647619 6.513017
              CHANNELS 3 Zrotation Yrotation Xrotation
            }
          }
        }
      }
    }
    JOINT RightLeg
    {
      OFFSET -10.047278 -8.29526 2.620317
      CHANNELS 3 Zrotation Yrotation Xrotation
      JOINT RightShin
      {
        OFFSET 1e-06 -43.362206 -0.805556
        CHANNELS 3 Zrotation Yrotation Xrotation
        JOINT RightFoot
        {
          OFFSET 2e-06 -42.117393 -3.478398
          CHANNELS 3 Zrotation Yrotation Xrotation
          JOINT RightToeBase
          {
            OFFSET -0.0 -5.079609 13.284196
            CHANNELS 3 Zrotation Yrotation Xrotation
            JOINT RightToeEnd
            {
              OFFSET 0.009532 -1.634378 6.460591
              CHANNELS 3 Zrotation Yrotation Xrotation
            }
          }
        }
      }
    }
  }
}
MOTION
Frames: 4
Frame Time: 0.03333333333333333
-1.831429 0.0 -5.08476 0.0 -0.190212 0.0 0.0 100.250351 0.0 -0.330304 -0.001472 -0.255513 0.676254 -0.052482 -2.258385 -0.435452 -0.144156 -5.717024 -1.208404 -1.924751 11.669696 -1.217842 3.32629 5.518723 -0.353949 0.515444 -3.659946 2.322769 -0.53012 -8.122722 6.3e-05 1.5e-05 0.001158 -0.004094 0.077514 0.009231 0.671626 -3.65748 -10.560734 -0.686535 3.818991 -10.554835 -12.239835 -2.531001 15.084814 -61.155506 -9.193912 27.338371 0.391024 -30.983015 -0.378784 6.553401 -2.939237 3.839269 -5.904583 9.831634 0.737794 -10.898738 -0.335536 7.159453 0.003581 8.787473 -0.00508 -15.636791 18.111164 6.223796 -1.862276 2.503646 -2.506878 -10.176538 4.677254 4.60635 -21.012094 -0.004354 0.002764 -21.280415 2.446192 -3.606102 0.007125 0.003243 -0.005079 -1.372884 2.249489 -0.753157 -21.368708 0.568932 3.00711 -13.853907 -0.006873 0.003959 -23.94973 -0.266971 -0.84848 -60.459183 2.67754 -1.062378 -0.304438 1.682049 0.838213 -14.248017 0.074547 1.275043 -34.301678 -0.320089 0.993064 -20.085411 0.947869 1.22534 0.005415 0.001529 -0.005913 -3.478103 0.798561 0.491608 -15.938226 -3.187584 2.991175 -6.348042 -0.009375 0.000298 -18.191734 3.638015 -4.915397 0.003491 0.009129 -0.008253 19.111752 8.773658 17.928549 59.174412 6.729015 7.851653 -0.593897 30.933855 -0.045924 0.265732 -9.527431 -5.686397 2.242978 -5.23709 -3.128926 14.259229 -0.839434 6.988258 -0.006686 -12.699716 -0.001143 15.939131 -18.229319 2.919222 1.671125 -1.948935 -2.889292 4.73305 -4.172931 5.002244 11.030083 -0.000525 0.001363 12.133144 -3.727 -2.88859 -0.005391 -0.003378 0.002765 1.292098 -1.922857 -1.497362 14.813907 0.564491 3.868833 14.250855 -1.334557 -6.674195 19.648157 0.151269 -0.652401 50.232037 -0.66007 -6.462956 0.353133 -1.501722 -0.028476 20.231943 3.677171 2.303142 18.793188 0.004068 -0.004151 10.74175 -0.481269 1.399612 -0.000499 0.00174 -0.004874 3.285333 0.31438 -0.597773 21.495186 11.823855 2.274483 8.173272 0.003185 -0.005681 18.428858 -3.787308 -4.929644 0.011314 -0.000343 -0.000737 5.037519 13.01088 2.444762 -0.064264 -0.36931 2.685432 -7.108749 -0.476827 -4.074398 1.622325 -1.803537 -1.404148 -4.8e-05 0.000617 0.000701 -4.116981 -8.589011 2.62809 0.06901 0.141034 1.698638 5.74768 -6.606698 -3.511473 -1.409982 0.968816 -1.5861 -0.000348 0.001678 0.002995 
-1.913486 0.0 -5.128893 0.0 -0.252911 0.0 0.0 100.277458 0.0 -0.322932 -0.001371 -0.243651 0.679826 -0.04948 -2.242142 -0.426149 -0.126602 -5.737872 -1.241406 -1.939655 11.660999 -1.230254 3.322066 5.512031 -0.364387 0.503853 -3.653502 2.296865 -0.547204 -8.140842 3.6e-05 -8.3e-05 2e-06 0.000697 0.091851 0.010287 0.673054 -3.640738 -10.560646 -0.678946 3.831004 -10.556261 -12.213156 -2.477338 15.101663 -61.125141 -9.027889 27.07185 0.299724 -31.416258 -0.316431 6.582426 -3.020218 4.1823 -5.871031 9.837385 0.800198 -10.918612 -0.342754 7.206718 0.004796 8.768214 -0.006235 -15.616557 18.078974 6.24384 -1.844486 2.49464 -2.50335 -10.171417 4.678844 4.614966 -20.98691 -0.004811 -0.005906 -21.259636 2.433408 -3.612177 -0.003591 -0.000465 0.004939 -1.356762 2.241171 -0.755185 -21.35458 0.579088 2.997782 -13.82635 -0.001178 0.00695 -23.903446 -0.269622 -0.806958 -60.365444 2.706446 -1.019009 -0.281437 1.682056 0.834195 -14.230131 0.089652 1.303495 -34.224697 -0.298559 0.981753 -20.053057 0.966959 1.200431 -0.001341 -0.004137 0.005641 -3.451605 0.791993 0.490785 -15.928013 -3.176676 3.001005 -6.347917 -0.008477 0.009318 -18.138296 3.651413 -4.915068 -0.003715 0.001613 -0.015194 19.027378 8.727453 17.954798 59.081303 6.619034 7.640728 -0.649017 31.218487 -0.098794 0.127795 -9.342504 -5.96151 2.23569 -5.21654 -3.116789 14.282056 -0.85294 6.985316 -0.002163 -12.709721 -0.01405 15.94334 -18.217991 2.869982 1.667137 -1.951969 -2.865746 4.729476 -4.177213 4.990778 11.020047 0.00327 0.001073 12.107055 -3.732722 -2.874057 -0.005036 -0.003593 0.007049 1.293445 -1.933126 -1.4839 14.804713 0.576431 3.866699 14.24277 -1.338637 -6.6724 19.635569 0.141462 -0.641479 50.151779 -0.608497 -6.46276 0.359677 -1.522568 -0.025103 20.212492 3.696031 2.321187 18.77285 -0.010143 0.004895 10.766962 -0.474513 1.412969 -0.008802 -0.005474 -0.006531 3.282249 0.287335 -0.579099 21.496061 11.884547 2.286423 8.163179 -0.008144 0.000413 18.393473 -3.806887 -4.939707 0.009595 0.002802 -0.002069 5.024777 12.854414 2.564588 -0.06886 -0.348931 2.331377 -7.008817 -0.27356 -3.861187 1.622391 -1.825323 -1.45808 0.001727 0.000316 0.007217 -4.107686 -8.530692 2.631359 0.054995 0.092704 1.668215 5.824914 -6.578302 -3.344033 -1.408114 0.985963 -1.695024 -0.000242 -0.004401 0.003341 
-1.947787 0.0 -5.155739 0.0 -0.275871 0.0 0.0 100.301186 0.0 -0.317642 -0.001272 -0.229821 0.687233 -0.04799 -2.230605 -0.428044 -0.118051 -5.748827 -1.257714 -1.966599 11.646921 -1.245165 3.373163 5.525366 -0.388584 0.458037 -3.646525 2.303284 -0.498458 -8.247859 2.6e-05 -0.000341 0.001117 0.002666 0.082688 0.020596 0.669834 -3.646947 -10.556129 -0.671836 3.820374 -10.555056 -12.195621 -2.391824 15.171643 -61.080025 -8.874518 26.84483 0.282333 -31.907465 -0.330002 6.641222 -3.109797 4.554398 -5.864078 9.805307 0.829274 -10.909138 -0.340961 7.202049 0.004586 8.774609 0.00331 -15.653111 18.070299 6.230522 -1.839255 2.499427 -2.522697 -10.165607 4.683091 4.606952 -21.00239 -0.001674 0.027359 -21.256044 2.449466 -3.612813 0.015157 1.9e-05 0.001517 -1.355245 2.24762 -0.764856 -21.356853 0.585686 3.011443 -13.840986 -0.014829 -0.004989 -23.942039 -0.236805 -0.8336 -60.459053 2.660532 -1.00653 -0.285468 1.69056 0.825118 -14.223392 0.08309 1.298536 -34.203163 -0.297778 0.972182 -20.022131 0.948105 1.230325 -0.015626 -0.006497 -0.007271 -3.44139 0.796135 0.47382 -15.935287 -3.161472 3.019998 -6.348247 -0.002017 0.00055 -18.150661 3.645097 -4.9383 -0.002078 -0.005353 -0.010413 18.936352 8.701428 17.988703 59.100071 6.535291 7.549671 -0.693968 31.484581 -0.104887 0.023823 -9.085207 -6.20405 2.246154 -5.21031 -3.072109 14.287653 -0.822257 6.97983 0.001777 -12.692883 0.000689 15.954672 -18.152065 2.835603 1.663776 -1.952069 -2.881844 4.730835 -4.173543 4.974013 11.029813 0.000526 0.010513 12.129468 -3.730247 -2.8817 0.005361 0.00129 0.004174 1.282369 -1.923042 -1.509308 14.810509 0.556343 3.862441 14.254097 -1.33999 -6.659602 19.646521 0.146111 -0.655112 50.073769 -0.589122 -6.46891 0.343528 -1.50633 -0.042103 20.229601 3.671216 2.317492 18.802132 0.008905 0.010627 10.755486 -0.478788 1.399628 -0.00881 -0.001507 -0.005007 3.271992 0.304763 -0.612751 21.49192 11.824577 2.275543 8.169563 -0.003993 -0.000429 18.411812 -3.788177 -4.939194 -0.008594 -0.003322 1.7e-05 5.001657 12.698168 2.691453 -0.074593 -0.356377 2.083122 -6.984346 -0.116308 -3.67982 1.623184 -1.838484 -1.456374 -3.7e-05 -0.000648 0.004291 -4.104468 -8.447849 2.636246 0.053152 0.077803 1.637524 5.861326 -6.637002 -3.262513 -1.399541 0.965401 -1.754104 0.000141 0.00253 0.003408 
-1.965097 0.0 -5.148401 0.0 -0.294614 0.0 0.0 100.308037 0.0 -0.307275 -0.001101 -0.205749 0.690976 -0.025499 -2.19091 -0.437788 -0.138573 -5.769209 -1.266873 -1.974891 11.616625 -1.252759 3.438797 5.508565 -0.415856 0.422097 -3.638441 2.291816 -0.512888 -8.353911 5e-05 -0.000242 -0.002352 0.003568 0.07609 0.021657 0.666962 -3.651418 -10.565465 -0.666887 3.812682 -10.560832 -12.148529 -2.225107 15.232435 -60.991016 -8.658042 26.605003 0.283269 -32.542706 -0.334284 6.726399 -3.148664 4.854397 -5.911097 9.768618 0.881166 -10.940316 -0.314429 7.221586 0.006207 8.796712 -0.008408 -15.672028 18.12742 6.242208 -1.835155 2.501924 -2.500167 -10.158871 4.675675 4.623219 -20.978086 -0.015296 0.009735 -21.226053 2.446108 -3.579186 0.01069 -0.003164 0.000427 -1.340947 2.245835 -0.742678 -21.343409 0.563746 3.031526 -13.824694 -0.019444 0.010813 -23.874056 -0.26756 -0.798633 -60.343418 2.714434 -0.841337 -0.28026 1.699683 0.851139 -14.222456 0.056178 1.288896 -34.224617 -0.283336 0.994767 -20.052996 0.985231 1.24532 0.008195 2.1e-05 -0.008019 -3.404462 0.799331 0.48623 -15.957211 -3.202978 3.006431 -6.337777 0.002799 0.003634 -18.090477 3.647485 -4.873653 -0.008379 0.002219 -0.001569 18.866932 8.632733 17.842472 59.010464 6.459873 7.398781 -0.698922 31.825869 -0.151437 -0.131722 -8.786862 -6.310413 2.25296 -5.265315 -3.175097 14.27733 -0.815296 6.943298 -0.002591 -12.681449 0.00533 15.952086 -18.121914 2.833076 1.665626 -1.952905 -2.864132 4.72746 -4.163703 4.99704 11.019664 0.003835 -0.00299 12.101967 -3.729253 -2.8614 -0.004886 -0.004853 0.0 1.286934 -1.913258 -1.486259 14.806416 0.55789 3.868071 14.252898 -1.329606 -6.666593 19.626528 0.141458 -0.627465 50.049603 -0.586057 -6.444205 0.343815 -1.485023 -0.016398 20.218407 3.659805 2.309036 18.786716 0.007778 -0.003095 10.730937 -0.487915 1.405071 0.010355 0.000716 -0.000163 3.263013 0.328879 -0.569845 21.497364 11.806478 2.263008 8.161007 -0.000734 0.003539 18.384258 -3.786954 -4.931489 -0.007861 -0.002265 -0.005151 4.959865 12.53806 2.713102 -0.076459 -0.346912 2.031884 -6.981338 0.027069 -3.668135 1.621561 -1.863801 -1.443785 -0.000155 0.004315 0.004599 -4.113931 -8.342285 2.619855 0.043336 0.044374 1.645609 5.968069 -6.670934 -3.276657 -1.390536 0.975067 -1.784279 -0.00017 -0.006875 0.003356 
